<svg xmlns="http://www.w3.org/2000/svg" viewBox="0 0 30.1 30.23"><defs><style>.cls-1{fill:#575756;}</style></defs><title>FACEBOOK</title><g id="Layer_2" data-name="Layer 2"><g id="Layer_1-2" data-name="Layer 1"><path class="cls-1" d="M0,15.2A14.88,14.88,0,0,1,15.19,0,14.89,14.89,0,0,1,30.1,15.1,15.05,15.05,0,1,1,0,15.2Zm12.82,4.45c0,.88,0,1.76,0,2.64s-.13,1.66,1.23,1.59c2-.09,2.09-.1,2.11-1.68,0-1.86,0-3.72,0-5.57,0-1,.34-1.54,1.44-1.5,1.79.06,1.26-1.34,1.36-2.3.12-1.16-.63-1.29-1.52-1.19-.61.07-1.15,0-1.19-.75s.08-1.42,1-1.55a5.32,5.32,0,0,1,.69,0c1.13,0,1-.83,1.05-1.59s-.12-1.32-1.1-1.4c-3.32-.31-4.82.9-5.07,4.22-.05.67-.14,1.19-1,1.16s-.93.67-.86,1.27-.5,1.89.69,2.11,1.2.8,1.18,1.66S12.82,18.68,12.82,19.65Z"/></g></g></svg>