<svg xmlns="http://www.w3.org/2000/svg" viewBox="0 0 30.09 30.08"><defs><style>.cls-1{fill:#575756;}</style></defs><title>LINKEDIN</title><g id="Layer_2" data-name="Layer 2"><g id="Layer_1-2" data-name="Layer 1"><path class="cls-1" d="M0,14.81a15,15,0,0,1,30.09.28,14.79,14.79,0,0,1-15,15A14.88,14.88,0,0,1,0,14.81Zm13.13,2.34c0,1.43,0,2.87,0,4.31,0,1.18.47,1.54,1.58,1.51s1.83-.08,1.77-1.46c-.07-1.62-.05-3.25,0-4.87s.75-2.43,2-2.52,2,.71,2.23,2.31a40.85,40.85,0,0,1,.17,5.42c0,1.08.76,1.14,1.54,1.1s1.76.25,1.76-1c0-2.54.26-5.1-.24-7.63a3.05,3.05,0,0,0-2.46-2.7,5.54,5.54,0,0,0-4.18.46c-.47.29-.78.48-1.24-.15-.61-.82-1.66-.54-2.46-.39s-.46,1-.48,1.56C13.1,14.46,13.13,15.8,13.13,17.15Zm-6.42,0c0,1.53,0,3.06,0,4.59C6.7,22.52,7,23,7.84,23c.56,0,1.12,0,1.67,0,.76,0,1.09-.38,1.09-1.12q0-4.59,0-9.17c0-.83-.41-1.17-1.21-1.16-.46,0-.92,0-1.39,0-1-.05-1.32.42-1.3,1.34C6.73,14.27,6.7,15.71,6.71,17.14Zm2-11.49A1.72,1.72,0,0,0,6.73,7.36a1.94,1.94,0,0,0,2,2,1.81,1.81,0,0,0,1.85-1.86A1.75,1.75,0,0,0,8.66,5.65Z"/></g></g></svg>