<?xml version="1.0" encoding="UTF-8" standalone="no"?>
<!-- Created with Inkscape (http://www.inkscape.org/) -->

<svg
   xmlns:dc="http://purl.org/dc/elements/1.1/"
   xmlns:cc="http://creativecommons.org/ns#"
   xmlns:rdf="http://www.w3.org/1999/02/22-rdf-syntax-ns#"
   xmlns:svg="http://www.w3.org/2000/svg"
   xmlns="http://www.w3.org/2000/svg"
   xmlns:sodipodi="http://sodipodi.sourceforge.net/DTD/sodipodi-0.dtd"
   xmlns:inkscape="http://www.inkscape.org/namespaces/inkscape"
   width="51.941216mm"
   height="18.062222mm"
   viewBox="0 0 184.04368 63.999992"
   id="svg4229"
   version="1.1"
   inkscape:version="0.91 r13725"
   sodipodi:docname="monogramm_horizontal.svg"
   inkscape:export-filename="D:\Files\.private_documents\Work\Monogramm\Direction Artistique\Monogramm\monogramm_horizontalpng"
   inkscape:export-xdpi="500.7507"
   inkscape:export-ydpi="500.7507">
  <defs
     id="defs4231">
    <clipPath
       clipPathUnits="userSpaceOnUse"
       id="clipPath4166">
      <path
         d="m 0,0 841.89,0 0,476.22 L 0,476.22 0,0 Z"
         id="path4168"
         inkscape:connector-curvature="0" />
    </clipPath>
    <clipPath
       clipPathUnits="userSpaceOnUse"
       id="clipPath5389">
      <path
         d="m 0,0 841.89,0 0,476.22 L 0,476.22 0,0 Z"
         id="path5391"
         inkscape:connector-curvature="0" />
    </clipPath>
    <clipPath
       clipPathUnits="userSpaceOnUse"
       id="clipPath5389-2">
      <path
         d="m 0,0 841.89,0 0,476.22 L 0,476.22 0,0 Z"
         id="path5391-2"
         inkscape:connector-curvature="0" />
    </clipPath>
  </defs>
  <sodipodi:namedview
     id="base"
     pagecolor="#ffffff"
     bordercolor="#666666"
     borderopacity="1.0"
     inkscape:pageopacity="0.0"
     inkscape:pageshadow="2"
     inkscape:zoom="5.6568544"
     inkscape:cx="90.156525"
     inkscape:cy="47.203542"
     inkscape:document-units="px"
     inkscape:current-layer="layer1"
     showgrid="false"
     units="mm"
     width="13in"
     inkscape:window-width="1920"
     inkscape:window-height="1017"
     inkscape:window-x="-8"
     inkscape:window-y="-8"
     inkscape:window-maximized="1"
     fit-margin-top="0"
     fit-margin-left="0"
     fit-margin-right="0"
     fit-margin-bottom="0" />
  <metadata
     id="metadata4234">
    <rdf:RDF>
      <cc:Work
         rdf:about="">
        <dc:format>image/svg+xml</dc:format>
        <dc:type
           rdf:resource="http://purl.org/dc/dcmitype/StillImage" />
        <dc:title></dc:title>
      </cc:Work>
    </rdf:RDF>
  </metadata>
  <g
     inkscape:label="Calque 1"
     inkscape:groupmode="layer"
     id="layer1"
     transform="translate(-0.004369,-988.36251)">
    <g
       id="g4170"
       transform="matrix(0.75874023,0,0,-0.75874023,21.84793,1032.7956)">
      <path
         d="m 0,0 c 3.111,0 6.202,-0.031 9.292,0.01 2.414,0.033 2.936,-1.939 3.459,-3.534 0.428,-1.305 0.26,-2.866 0.06,-4.272 -0.05,-0.351 -1.239,-0.768 -1.907,-0.769 -12.26,-0.035 -24.52,0 -36.781,-0.011 -1.373,-10e-4 -2.088,0.375 -2.084,1.925 0.045,21.192 0.051,42.385 0.076,63.579 0,0.118 0.132,0.236 0.387,0.663 1.803,-1.617 3.601,-3.145 5.304,-4.772 9.775,-9.335 19.548,-18.671 29.259,-28.071 1.152,-1.115 1.876,-1.099 2.961,-0.041 2.914,2.841 5.912,5.596 8.853,8.41 8.504,8.138 16.996,16.289 25.499,24.428 0.095,0.091 0.281,0.087 0.639,0.188 0.101,-0.476 0.281,-0.935 0.281,-1.394 0.021,-20.967 0.018,-41.935 0.049,-62.902 0.003,-1.386 -0.321,-2.046 -1.904,-2.03 -4.539,0.045 -9.08,-0.114 -13.62,-0.102 -1.51,0.004 -2.266,-0.4 -2.617,-2.04 C 25.343,-19.449 17,-25.426 8.02,-24.932 c -6.638,0.366 -11.855,3.048 -15.666,8.475 -0.288,0.41 -0.475,0.892 -0.914,1.734 4.744,-0.008 9.125,0.843 13.469,-1.236 3.642,-1.744 8.951,-0.312 11.715,2.442 2.971,2.959 3.473,9.098 1.793,12.04 -1.443,2.526 -2.928,5.035 -4.562,7.438 -0.703,1.035 -0.725,1.666 0.188,2.481 1.294,1.154 2.461,2.456 3.804,3.544 0.371,0.301 1.536,0.313 1.728,0.037 2.258,-3.264 4.498,-6.549 6.523,-9.959 0.729,-1.227 1.313,-2.066 2.875,-1.986 2.19,0.111 4.398,-0.059 6.576,0.135 0.575,0.051 1.532,0.991 1.536,1.529 0.074,10.594 0.033,21.188 0.016,31.783 -0.002,1.568 0,3.136 0,4.74 C 32.258,36.313 0.272,3.525 0,0 m -19.296,38.42 c -0.26,-0.709 -0.355,-0.847 -0.355,-0.986 -0.005,-11.934 -0.021,-23.867 0.061,-35.801 0.003,-0.499 0.895,-1.389 1.415,-1.422 2.483,-0.154 4.982,-0.12 7.472,-0.04 0.471,0.015 1.193,0.437 1.348,0.844 2.313,6.047 6.537,10.71 10.855,15.332 0.353,0.376 0.417,1.624 0.097,1.937 -6.09,5.944 -12.258,11.807 -18.407,17.691 -0.762,0.729 -1.504,1.478 -2.486,2.445"
         style="fill:#fc2140;fill-opacity:1;fill-rule:nonzero;stroke:none"
         id="path4172"
         inkscape:connector-curvature="0" />
    </g>
    <g
       id="g4174"
       transform="matrix(0.75874023,0,0,-0.75874023,62.678815,1009.6402)">
      <path
         d="M 0,0 2.682,0 8.072,-12.649 13.358,0 l 2.691,0 0,-19.406 -2.845,0 0,12.103 -0.065,0 -3.934,-9.32 -2.373,0 -3.935,9.32 -0.051,0 0,-12.103 -2.846,0 L 0,0 Z m 20.018,-9.703 c 0,2.259 0.065,3.77 0.194,4.535 0.137,0.764 0.348,1.383 0.631,1.854 0.455,0.892 1.186,1.688 2.191,2.386 0.988,0.708 2.22,1.07 3.698,1.088 1.495,-0.018 2.74,-0.382 3.737,-1.092 0.988,-0.701 1.701,-1.499 2.139,-2.396 0.318,-0.47 0.537,-1.087 0.657,-1.85 0.111,-0.763 0.167,-2.271 0.167,-4.525 0,-2.218 -0.056,-3.718 -0.167,-4.499 -0.12,-0.781 -0.339,-1.406 -0.657,-1.877 -0.438,-0.896 -1.151,-1.686 -2.139,-2.369 -0.997,-0.71 -2.242,-1.082 -3.737,-1.118 -1.478,0.036 -2.71,0.408 -3.698,1.118 -1.006,0.683 -1.736,1.473 -2.191,2.369 -0.137,0.293 -0.262,0.573 -0.374,0.839 -0.103,0.275 -0.189,0.621 -0.257,1.038 -0.129,0.781 -0.194,2.281 -0.194,4.499 m 2.846,0 c 0,-1.912 0.069,-3.206 0.207,-3.881 0.12,-0.676 0.366,-1.223 0.736,-1.641 0.301,-0.4 0.697,-0.725 1.188,-0.974 0.482,-0.293 1.059,-0.44 1.73,-0.44 0.68,0 1.27,0.147 1.77,0.44 0.473,0.249 0.852,0.574 1.136,0.974 0.37,0.418 0.624,0.965 0.762,1.641 0.129,0.675 0.194,1.969 0.194,3.881 0,1.912 -0.065,3.214 -0.194,3.908 -0.138,0.658 -0.392,1.196 -0.762,1.614 -0.284,0.4 -0.663,0.733 -1.136,1 -0.5,0.258 -1.09,0.396 -1.77,0.414 -0.671,-0.018 -1.248,-0.156 -1.73,-0.414 -0.491,-0.267 -0.887,-0.6 -1.188,-1 -0.37,-0.418 -0.616,-0.956 -0.736,-1.614 -0.138,-0.694 -0.207,-1.996 -0.207,-3.908 M 37.282,0 l 2.682,0 8.513,-13.796 0.052,0 0,13.796 2.845,0 0,-19.406 -2.695,0 -8.5,13.796 -0.052,0 0,-13.796 -2.845,0 0,19.406 z M 55.29,-9.703 c 0,2.259 0.064,3.77 0.193,4.535 0.138,0.764 0.348,1.383 0.632,1.854 0.455,0.892 1.185,1.688 2.19,2.386 0.988,0.708 2.221,1.07 3.699,1.088 1.495,-0.018 2.74,-0.382 3.737,-1.092 0.988,-0.701 1.701,-1.499 2.139,-2.396 0.318,-0.47 0.537,-1.087 0.657,-1.85 0.111,-0.763 0.167,-2.271 0.167,-4.525 0,-2.218 -0.056,-3.718 -0.167,-4.499 -0.121,-0.781 -0.34,-1.406 -0.657,-1.877 -0.439,-0.896 -1.152,-1.686 -2.14,-2.369 -0.996,-0.71 -2.242,-1.082 -3.736,-1.118 -1.478,0.036 -2.711,0.408 -3.699,1.118 -1.005,0.683 -1.735,1.473 -2.19,2.369 -0.138,0.293 -0.262,0.573 -0.374,0.839 -0.103,0.275 -0.189,0.621 -0.258,1.038 -0.129,0.781 -0.193,2.281 -0.193,4.499 m 2.846,0 c 0,-1.912 0.069,-3.206 0.206,-3.881 0.121,-0.676 0.367,-1.223 0.737,-1.641 0.301,-0.4 0.697,-0.725 1.188,-0.974 0.482,-0.293 1.059,-0.44 1.73,-0.44 0.68,0 1.27,0.147 1.769,0.44 0.474,0.249 0.853,0.574 1.137,0.974 0.37,0.418 0.624,0.965 0.762,1.641 0.129,0.675 0.193,1.969 0.193,3.881 0,1.912 -0.064,3.214 -0.193,3.908 -0.138,0.658 -0.392,1.196 -0.762,1.614 -0.284,0.4 -0.663,0.733 -1.137,1 -0.499,0.258 -1.089,0.396 -1.769,0.414 -0.671,-0.018 -1.248,-0.156 -1.73,-0.414 -0.491,-0.267 -0.887,-0.6 -1.188,-1 -0.37,-0.418 -0.616,-0.956 -0.737,-1.614 -0.137,-0.694 -0.206,-1.996 -0.206,-3.908 m 20.511,0.97 6.681,0 0,-3.947 c -0.034,-1.941 -0.678,-3.567 -1.932,-4.879 -1.263,-1.302 -2.853,-1.971 -4.768,-2.007 -1.478,0.036 -2.71,0.408 -3.698,1.118 -1.006,0.683 -1.736,1.473 -2.191,2.369 -0.137,0.293 -0.262,0.573 -0.374,0.839 -0.103,0.275 -0.189,0.621 -0.257,1.038 -0.129,0.781 -0.194,2.281 -0.194,4.499 0,2.254 0.065,3.762 0.194,4.525 0.137,0.763 0.348,1.38 0.631,1.85 0.455,0.897 1.185,1.695 2.191,2.396 0.988,0.71 2.22,1.074 3.698,1.092 1.813,-0.018 3.29,-0.573 4.433,-1.664 1.142,-1.1 1.864,-2.462 2.165,-4.085 l -3.02,0 c -0.233,0.784 -0.654,1.453 -1.265,2.006 -0.636,0.526 -1.411,0.798 -2.322,0.816 -0.671,-0.018 -1.248,-0.156 -1.73,-0.414 -0.49,-0.267 -0.886,-0.6 -1.187,-1 -0.37,-0.418 -0.615,-0.956 -0.735,-1.614 -0.138,-0.694 -0.207,-1.996 -0.207,-3.908 0,-1.912 0.069,-3.206 0.207,-3.881 0.12,-0.676 0.366,-1.223 0.736,-1.641 0.301,-0.4 0.697,-0.725 1.188,-0.974 0.482,-0.293 1.059,-0.44 1.73,-0.44 1.111,0 2.028,0.392 2.751,1.175 0.723,0.748 1.093,1.731 1.111,2.951 l 0,1.014 -3.836,0 0,2.766 z m 13.376,0.227 4.317,0 c 1.069,0.017 1.87,0.338 2.404,0.96 0.526,0.579 0.789,1.291 0.789,2.136 -0.017,1.014 -0.332,1.748 -0.944,2.202 -0.482,0.4 -1.18,0.6 -2.094,0.6 l -4.472,0 0,-5.898 z M 89.178,0 96.522,0 c 1.566,0 2.844,-0.426 3.833,-1.278 1.191,-0.967 1.812,-2.347 1.864,-4.139 -0.035,-2.636 -1.244,-4.428 -3.63,-5.377 l 4.351,-8.612 -3.381,0 -3.891,8.293 -3.645,0 0,-8.293 -2.845,0 0,19.406 z m 25.444,-12.459 -2.72,8.489 -0.051,0 -2.72,-8.489 5.491,0 z m 0.812,-2.607 -7.128,0 -1.444,-4.34 -3.017,0 6.833,19.406 2.385,0 6.832,-19.406 -3.004,0 -1.457,4.34 z M 122.426,0 l 2.682,0 5.39,-12.649 5.286,12.649 2.692,0 0,-19.406 -2.846,0 0,12.103 -0.065,0 -3.934,-9.32 -2.373,0 -3.934,9.32 -0.052,0 0,-12.103 -2.846,0 0,19.406 z m 20.657,0 2.682,0 5.39,-12.649 5.287,12.649 2.691,0 0,-19.406 -2.846,0 0,12.103 -0.064,0 -3.935,-9.32 -2.373,0 -3.934,9.32 -0.052,0 0,-12.103 -2.846,0 0,19.406 z"
         style="fill:#210040;fill-opacity:1;fill-rule:nonzero;stroke:none"
         id="path4176"
         inkscape:connector-curvature="0" />
    </g>
  </g>
</svg>
