<svg xmlns="http://www.w3.org/2000/svg" viewBox="0 0 30.12 30.05"><defs><style>.cls-1{fill:#575756;}</style></defs><title>TWITTER</title><g id="Layer_2" data-name="Layer 2"><g id="Layer_1-2" data-name="Layer 1"><path class="cls-1" d="M15.18,0a14.83,14.83,0,0,1,14.94,15A14.87,14.87,0,0,1,14.49,30,14.89,14.89,0,0,1,0,14.85C0,6.81,6.94-.42,15.18,0ZM7.27,21.59c6.09,3.44,13.91-.75,14.67-7.7a3.23,3.23,0,0,1,1.24-2.69c-.1-.57-.81,0-.82-.58,0-.4.67-.53.46-1-1.35.27-1.35.27-2.9-.37a3.37,3.37,0,0,0-4.83,2.65c-.17,1.4-.88,1.43-1.91,1.16a10.6,10.6,0,0,1-4.87-2.57c-.66-.64-1-.5-1.14.4C6.93,12.06,7.6,13,8.3,14.05c-1.56-.15-1.2.59-.8,1.32.2.36.49.67.7,1s2,.43.51,1.51a1.36,1.36,0,0,0,.29.58,3.73,3.73,0,0,0,1.59,1.08c.84.27.65.65.06,1A13.7,13.7,0,0,1,7.27,21.59Z"/></g></g></svg>