<svg xmlns="http://www.w3.org/2000/svg" viewBox="0 0 30.1 30.23"><defs><style>.cls-1{fill:#575756;}</style></defs><title>YOUTUBE</title><g id="Layer_2" data-name="Layer 2"><g id="Layer_1-2" data-name="Layer 1"><path class="cls-1" d="M30.1,15.16A15.05,15.05,0,1,1,0,15,14.86,14.86,0,0,1,14.86,0,14.88,14.88,0,0,1,30.1,15.16Zm-14.93,6.4A45.55,45.55,0,0,0,21,21.34a2.6,2.6,0,0,0,2.64-2.51,26.61,26.61,0,0,0,0-7.35C23.42,9.83,22.89,9.1,21.2,9A74.05,74.05,0,0,0,8.83,9a2.34,2.34,0,0,0-2.29,2.24,32.58,32.58,0,0,0,0,7.77c.22,1.63,1,2.16,2.64,2.33A45.84,45.84,0,0,0,15.17,21.56Z"/><path class="cls-1" d="M13.1,14.84c0-2.68,0-2.71,2.38-1.35.73.43,2,.63,2,1.44s-1.26,1-2,1.42C13.11,17.77,13.1,17.75,13.1,14.84Z"/></g></g></svg>