<?xml version="1.0" encoding="UTF-8" standalone="no"?>
<!-- Created with Inkscape (http://www.inkscape.org/) -->

<svg
   xmlns:dc="http://purl.org/dc/elements/1.1/"
   xmlns:cc="http://creativecommons.org/ns#"
   xmlns:rdf="http://www.w3.org/1999/02/22-rdf-syntax-ns#"
   xmlns:svg="http://www.w3.org/2000/svg"
   xmlns="http://www.w3.org/2000/svg"
   xmlns:sodipodi="http://sodipodi.sourceforge.net/DTD/sodipodi-0.dtd"
   xmlns:inkscape="http://www.inkscape.org/namespaces/inkscape"
   width="35.5mm"
   height="35.5mm"
   viewBox="0 0 125.78738 125.78736"
   id="svg4229"
   version="1.1"
   inkscape:version="0.92.4 (5da689c313, 2019-01-14)"
   sodipodi:docname="app_icon.svg">
  <defs
     id="defs4231">
    <clipPath
       clipPathUnits="userSpaceOnUse"
       id="clipPath4166">
      <path
         d="m 0,0 841.89,0 0,476.22 L 0,476.22 0,0 Z"
         id="path4168"
         inkscape:connector-curvature="0" />
    </clipPath>
    <clipPath
       clipPathUnits="userSpaceOnUse"
       id="clipPath5389">
      <path
         d="m 0,0 841.89,0 0,476.22 L 0,476.22 0,0 Z"
         id="path5391"
         inkscape:connector-curvature="0" />
    </clipPath>
    <clipPath
       clipPathUnits="userSpaceOnUse"
       id="clipPath5389-2">
      <path
         d="m 0,0 841.89,0 0,476.22 L 0,476.22 0,0 Z"
         id="path5391-2"
         inkscape:connector-curvature="0" />
    </clipPath>
  </defs>
  <sodipodi:namedview
     id="base"
     pagecolor="#ffffff"
     bordercolor="#666666"
     borderopacity="1.0"
     inkscape:pageopacity="0.0"
     inkscape:pageshadow="2"
     inkscape:zoom="4"
     inkscape:cx="77.929394"
     inkscape:cy="55.538963"
     inkscape:document-units="px"
     inkscape:current-layer="layer1"
     showgrid="false"
     units="mm"
     width="13in"
     inkscape:window-width="1280"
     inkscape:window-height="961"
     inkscape:window-x="3832"
     inkscape:window-y="40"
     inkscape:window-maximized="1" />
  <metadata
     id="metadata4234">
    <rdf:RDF>
      <cc:Work
         rdf:about="">
        <dc:format>image/svg+xml</dc:format>
        <dc:type
           rdf:resource="http://purl.org/dc/dcmitype/StillImage" />
        <dc:title></dc:title>
      </cc:Work>
    </rdf:RDF>
  </metadata>
  <g
     inkscape:label="Calque 1"
     inkscape:groupmode="layer"
     id="layer1"
     transform="translate(0,-926.57463)">
    <path
       d="m -0.0509684,1052.4612 125.8392684,0 0,-125.88224 -125.8392684,0 0,125.88224 z"
       style="fill:#210040;fill-opacity:1;fill-rule:nonzero;stroke:none"
       id="path4160"
       inkscape:connector-curvature="0"
       inkscape:transform-center-x="-7.1420399"
       inkscape:transform-center-y="-35.927558" />
    <g
       transform="matrix(1.25,0,0,-1.25,-165.05711,1269.0918)"
       id="g4162"
       inkscape:transform-center-x="-14.43201"
       inkscape:transform-center-y="-84.92036">
      <g
         id="g4164"
         clip-path="url(#clipPath4166)"
         transform="translate(-75.519004,-45.820519)">
        <g
           id="g4170"
           transform="translate(248.834,248.974)">
          <path
             d="m 0,0 c 3.111,0 6.202,-0.031 9.292,0.01 2.414,0.033 2.936,-1.939 3.459,-3.534 0.428,-1.305 0.26,-2.866 0.06,-4.272 -0.05,-0.351 -1.239,-0.768 -1.907,-0.769 -12.26,-0.035 -24.52,0 -36.781,-0.011 -1.373,-10e-4 -2.088,0.375 -2.084,1.925 0.045,21.192 0.051,42.385 0.076,63.579 0,0.118 0.132,0.236 0.387,0.663 1.803,-1.617 3.601,-3.145 5.304,-4.772 9.775,-9.335 19.548,-18.671 29.259,-28.071 1.152,-1.115 1.876,-1.099 2.961,-0.041 2.914,2.841 5.912,5.596 8.853,8.41 8.504,8.138 16.996,16.289 25.499,24.428 0.095,0.091 0.281,0.087 0.639,0.188 0.101,-0.476 0.281,-0.935 0.281,-1.394 0.021,-20.967 0.018,-41.935 0.049,-62.902 0.003,-1.386 -0.321,-2.046 -1.904,-2.03 -4.539,0.045 -9.08,-0.114 -13.62,-0.102 -1.51,0.004 -2.266,-0.4 -2.617,-2.04 C 25.343,-19.449 17,-25.426 8.02,-24.932 c -6.638,0.366 -11.855,3.048 -15.666,8.475 -0.288,0.41 -0.475,0.892 -0.914,1.734 4.744,-0.008 9.125,0.843 13.469,-1.236 3.642,-1.744 8.951,-0.312 11.715,2.442 2.971,2.959 3.473,9.098 1.793,12.04 -1.443,2.526 -2.928,5.035 -4.562,7.438 -0.703,1.035 -0.725,1.666 0.188,2.481 1.294,1.154 2.461,2.456 3.804,3.544 0.371,0.301 1.536,0.313 1.728,0.037 2.258,-3.264 4.498,-6.549 6.523,-9.959 0.729,-1.227 1.313,-2.066 2.875,-1.986 2.19,0.111 4.398,-0.059 6.576,0.135 0.575,0.051 1.532,0.991 1.536,1.529 0.074,10.594 0.033,21.188 0.016,31.783 -0.002,1.568 0,3.136 0,4.74 C 32.258,36.313 0.272,3.525 0,0 m -19.296,38.42 c -0.26,-0.709 -0.355,-0.847 -0.355,-0.986 -0.005,-11.934 -0.021,-23.867 0.061,-35.801 0.003,-0.499 0.895,-1.389 1.415,-1.422 2.483,-0.154 4.982,-0.12 7.472,-0.04 0.471,0.015 1.193,0.437 1.348,0.844 2.313,6.047 6.537,10.71 10.855,15.332 0.353,0.376 0.417,1.624 0.097,1.937 -6.09,5.944 -12.258,11.807 -18.407,17.691 -0.762,0.729 -1.504,1.478 -2.486,2.445"
             style="fill:#fc2140;fill-opacity:1;fill-rule:nonzero;stroke:none"
             id="path4172"
             inkscape:connector-curvature="0" />
        </g>
        <g
           id="g4174"
           transform="translate(179.0764,212.4355)" />
      </g>
    </g>
  </g>
</svg>
