<?xml version="1.0" encoding="UTF-8" standalone="no"?>
<!-- Created with Inkscape (http://www.inkscape.org/) -->

<svg
   xmlns:dc="http://purl.org/dc/elements/1.1/"
   xmlns:cc="http://creativecommons.org/ns#"
   xmlns:rdf="http://www.w3.org/1999/02/22-rdf-syntax-ns#"
   xmlns:svg="http://www.w3.org/2000/svg"
   xmlns="http://www.w3.org/2000/svg"
   xmlns:sodipodi="http://sodipodi.sourceforge.net/DTD/sodipodi-0.dtd"
   xmlns:inkscape="http://www.inkscape.org/namespaces/inkscape"
   width="192mm"
   height="192mm"
   viewBox="0 0 192 192"
   version="1.1"
   id="svg8"
   inkscape:version="0.92.4 (5da689c313, 2019-01-14)"
   sodipodi:docname="safari-pinned-tab.svg">
  <defs
     id="defs2">
    <clipPath
       id="clipPath839"
       clipPathUnits="userSpaceOnUse">
      <path
         style="clip-rule:evenodd"
         inkscape:connector-curvature="0"
         id="path837"
         d="M 267.67999,219.2 H 856.96002 V 561.76001 H 267.67999 Z" />
    </clipPath>
  </defs>
  <sodipodi:namedview
     id="base"
     pagecolor="#ffffff"
     bordercolor="#666666"
     borderopacity="1.0"
     inkscape:pageopacity="0.0"
     inkscape:pageshadow="2"
     inkscape:zoom="0.98994949"
     inkscape:cx="248.47806"
     inkscape:cy="319.50292"
     inkscape:document-units="mm"
     inkscape:current-layer="layer1"
     showgrid="false"
     showguides="true"
     inkscape:guide-bbox="true"
     inkscape:window-width="1920"
     inkscape:window-height="1017"
     inkscape:window-x="-8"
     inkscape:window-y="-8"
     inkscape:window-maximized="1" />
  <metadata
     id="metadata5">
    <rdf:RDF>
      <cc:Work
         rdf:about="">
        <dc:format>image/svg+xml</dc:format>
        <dc:type
           rdf:resource="http://purl.org/dc/dcmitype/StillImage" />
        <dc:title></dc:title>
      </cc:Work>
    </rdf:RDF>
  </metadata>
  <g
     inkscape:label="Calque 1"
     inkscape:groupmode="layer"
     id="layer1"
     transform="translate(0,-105)">
    <path
       style="opacity:1;fill:#000000;fill-opacity:1;fill-rule:nonzero;stroke:none;stroke-width:1.27363408;stroke-linecap:round;stroke-linejoin:round;stroke-miterlimit:4;stroke-dasharray:none;stroke-dashoffset:0;stroke-opacity:1"
       d="m 96.856077,144.11631 a 56.88878,56.888904 0 0 0 -27.375123,6.55214 56.88878,56.888904 0 0 0 -24.040274,76.40763 56.88878,56.888904 0 0 0 76.19434,24.70916 56.88878,56.888904 0 0 0 25.3724,-75.97588 l -0.91318,-1.76938 A 56.88878,56.888904 0 0 0 96.856077,144.11631 Z m -0.10666,7.11069 a 49.777681,49.77779 0 0 1 43.082933,26.18272 l 0.79926,1.54894 a 49.777681,49.77779 0 0 1 -22.2011,66.47842 49.777681,49.77779 0 0 1 -66.671193,-21.62052 49.777681,49.77779 0 0 1 21.03619,-66.85691 49.777681,49.77779 0 0 1 23.95391,-5.73265 z"
       id="path864-5"
       inkscape:connector-curvature="0" />
    <path
       id="path915-5"
       style="fill:none;fill-rule:evenodd;stroke:#000000;stroke-width:2.84440088;stroke-linecap:butt;stroke-linejoin:miter;stroke-miterlimit:4;stroke-dasharray:none;stroke-opacity:1"
       d="m 109.53133,200.99826 z m 0,0 c -5.80459,4.03017 -11.034197,4.5776 -12.911283,5.3944 4.259023,18.28913 29.576323,22.28129 29.576323,22.28129 -4.11711,-15.68501 -10.68937,-23.52673 -16.66504,-27.67569 z m -12.911283,5.3944 h 4e-5 z m -0.619838,-5.39415 c 0,-22.92985 30.196061,-27.67545 30.196061,-27.67545 -9.13055,34.78439 -30.341771,31.05913 -30.322031,33.80689 0.0106,3.16574 0.12587,-6.13144 0.12587,-6.13144 z"
       inkscape:connector-curvature="0" />
    <path
       inkscape:connector-curvature="0"
       id="path915-5-4"
       style="fill:none;fill-rule:evenodd;stroke:#000000;stroke-width:2.84440088;stroke-linecap:butt;stroke-linejoin:miter;stroke-miterlimit:4;stroke-dasharray:none;stroke-opacity:1"
       d="m 82.468881,200.99826 z m 0,0 c 5.804585,4.03017 11.034193,4.5776 12.911279,5.3944 -4.259021,18.28913 -29.576325,22.28129 -29.576325,22.28129 4.117116,-15.68501 10.689373,-23.52673 16.665046,-27.67569 z m 12.911279,5.3944 h -4e-5 z m 0.619839,-5.39415 c 0,-22.92985 -30.196057,-27.67545 -30.196057,-27.67545 9.13055,34.78439 30.341766,31.05913 30.322026,33.80689 -0.0106,3.16574 -0.125859,-6.13144 -0.125859,-6.13144 z" />
    <rect
       style="opacity:1;fill:none;fill-opacity:1;fill-rule:nonzero;stroke:#000000;stroke-width:2.84440088;stroke-linecap:butt;stroke-linejoin:round;stroke-miterlimit:11.19999981;stroke-dasharray:none;stroke-dashoffset:0;stroke-opacity:1;paint-order:normal"
       id="rect911"
       width="0.67481178"
       height="48.67337"
       x="95.653496"
       y="177.77502" />
  </g>
</svg>
