<?xml version="1.0" encoding="UTF-8" standalone="no"?>
<!-- Created with Inkscape (http://www.inkscape.org/) -->

<svg
   xmlns:dc="http://purl.org/dc/elements/1.1/"
   xmlns:cc="http://creativecommons.org/ns#"
   xmlns:rdf="http://www.w3.org/1999/02/22-rdf-syntax-ns#"
   xmlns:svg="http://www.w3.org/2000/svg"
   xmlns="http://www.w3.org/2000/svg"
   xmlns:sodipodi="http://sodipodi.sourceforge.net/DTD/sodipodi-0.dtd"
   xmlns:inkscape="http://www.inkscape.org/namespaces/inkscape"
   width="256mm"
   height="256mm"
   viewBox="0 0 256 256"
   version="1.1"
   id="svg8"
   inkscape:version="0.92.4 (5da689c313, 2019-01-14)"
   sodipodi:docname="icon_alt.svg">
  <defs
     id="defs2">
    <clipPath
       id="clipPath839"
       clipPathUnits="userSpaceOnUse">
      <path
         style="clip-rule:evenodd"
         inkscape:connector-curvature="0"
         id="path837"
         d="M 267.67999,219.2 H 856.96002 V 561.76001 H 267.67999 Z" />
    </clipPath>
  </defs>
  <sodipodi:namedview
     id="base"
     pagecolor="#ffffff"
     bordercolor="#666666"
     borderopacity="1.0"
     inkscape:pageopacity="0.0"
     inkscape:pageshadow="2"
     inkscape:zoom="0.7"
     inkscape:cx="621.63296"
     inkscape:cy="489.17509"
     inkscape:document-units="mm"
     inkscape:current-layer="layer1"
     showgrid="false"
     showguides="true"
     inkscape:guide-bbox="true"
     inkscape:window-width="1920"
     inkscape:window-height="1017"
     inkscape:window-x="1912"
     inkscape:window-y="-8"
     inkscape:window-maximized="1" />
  <metadata
     id="metadata5">
    <rdf:RDF>
      <cc:Work
         rdf:about="">
        <dc:format>image/svg+xml</dc:format>
        <dc:type
           rdf:resource="http://purl.org/dc/dcmitype/StillImage" />
        <dc:title />
      </cc:Work>
    </rdf:RDF>
  </metadata>
  <g
     inkscape:label="Calque 1"
     inkscape:groupmode="layer"
     id="layer1"
     transform="translate(0,-41)">
    <path
       style="opacity:1;fill:#5ba550;fill-opacity:1;fill-rule:nonzero;stroke:none;stroke-width:2.64181089;stroke-linecap:round;stroke-linejoin:round;stroke-miterlimit:4;stroke-dasharray:none;stroke-dashoffset:0;stroke-opacity:1"
       d="M 129.77571,51.011497 A 118.00058,118.00058 0 0 0 72.993319,64.602156 118.00058,118.00058 0 0 0 23.128191,223.08903 118.00058,118.00058 0 0 0 181.173,274.34147 118.00058,118.00058 0 0 0 233.80126,116.75014 l -1.89413,-3.67012 A 118.00058,118.00058 0 0 0 129.77571,51.011497 Z m -0.22125,14.749199 a 103.25051,103.25051 0 0 1 89.36405,54.308944 l 1.65784,3.21287 A 103.25051,103.25051 0 0 1 174.5261,261.17392 103.25051,103.25051 0 0 1 36.234515,216.32803 103.25051,103.25051 0 0 1 79.868475,77.651535 103.25051,103.25051 0 0 1 129.55446,65.760696 Z"
       id="path864-5"
       inkscape:connector-curvature="0" />
    <path
       id="path915-5"
       style="fill:none;fill-rule:evenodd;stroke:#5ba550;stroke-width:5.89994335;stroke-linecap:butt;stroke-linejoin:miter;stroke-miterlimit:4;stroke-dasharray:none;stroke-opacity:1"
       d="m 156.06712,168.99767 z m 0,0 c -12.04006,8.35949 -22.88749,9.49499 -26.78099,11.18922 8.83419,37.93583 61.34819,46.21648 61.34819,46.21648 -8.53986,-32.53429 -22.17226,-48.79982 -34.5672,-57.4057 z m -26.78099,11.18922 h 7e-5 z m -1.28569,-11.18871 c 0,-47.56173 62.63366,-57.4052 62.63366,-57.4052 -18.93889,72.15077 -62.9359,64.42374 -62.89496,70.12322 0.0221,6.56646 0.26109,-12.71802 0.26109,-12.71802 z"
       inkscape:connector-curvature="0" />
    <path
       inkscape:connector-curvature="0"
       id="path915-5-4"
       style="fill:none;fill-rule:evenodd;stroke:#5ba550;stroke-width:5.89994335;stroke-linecap:butt;stroke-linejoin:miter;stroke-miterlimit:4;stroke-dasharray:none;stroke-opacity:1"
       d="m 99.933307,168.99767 z m 0,0 c 12.040053,8.35949 22.887493,9.49499 26.781003,11.18922 -8.8342,37.93583 -61.348195,46.21648 -61.348195,46.21648 8.539859,-32.53429 22.172252,-48.79982 34.567192,-57.4057 z m 26.781003,11.18922 h -9e-5 z m 1.28568,-11.18871 c 0,-47.56173 -62.633652,-57.4052 -62.633652,-57.4052 18.938887,72.15077 62.935882,64.42374 62.894962,70.12322 -0.0221,6.56646 -0.26107,-12.71802 -0.26107,-12.71802 z" />
    <rect
       style="opacity:1;fill:none;fill-opacity:1;fill-rule:nonzero;stroke:#5ba550;stroke-width:5.89994335;stroke-linecap:butt;stroke-linejoin:round;stroke-miterlimit:11.19999981;stroke-dasharray:none;stroke-dashoffset:0;stroke-opacity:1;paint-order:normal"
       id="rect911"
       width="1.3997169"
       height="100.95969"
       x="127.28127"
       y="120.82743" />
  </g>
</svg>
