<?xml version="1.0" encoding="UTF-8" standalone="no"?>
<!-- Created with Inkscape (http://www.inkscape.org/) -->

<svg
   xmlns:dc="http://purl.org/dc/elements/1.1/"
   xmlns:cc="http://creativecommons.org/ns#"
   xmlns:rdf="http://www.w3.org/1999/02/22-rdf-syntax-ns#"
   xmlns:svg="http://www.w3.org/2000/svg"
   xmlns="http://www.w3.org/2000/svg"
   xmlns:sodipodi="http://sodipodi.sourceforge.net/DTD/sodipodi-0.dtd"
   xmlns:inkscape="http://www.inkscape.org/namespaces/inkscape"
   width="256mm"
   height="256mm"
   viewBox="0 0 256 256"
   version="1.1"
   id="svg8"
   inkscape:version="0.92.4 (5da689c313, 2019-01-14)"
   sodipodi:docname="icon_white.svg">
  <defs
     id="defs2">
    <clipPath
       id="clipPath839"
       clipPathUnits="userSpaceOnUse">
      <path
         style="clip-rule:evenodd"
         inkscape:connector-curvature="0"
         id="path837"
         d="M 267.67999,219.2 H 856.96002 V 561.76001 H 267.67999 Z" />
    </clipPath>
  </defs>
  <sodipodi:namedview
     id="base"
     pagecolor="#ffffff"
     bordercolor="#666666"
     borderopacity="1.0"
     inkscape:pageopacity="0.0"
     inkscape:pageshadow="2"
     inkscape:zoom="0.24748737"
     inkscape:cx="-883.37901"
     inkscape:cy="789.42379"
     inkscape:document-units="mm"
     inkscape:current-layer="layer1"
     showgrid="false"
     showguides="true"
     inkscape:guide-bbox="true"
     inkscape:window-width="1920"
     inkscape:window-height="1017"
     inkscape:window-x="1912"
     inkscape:window-y="-8"
     inkscape:window-maximized="1" />
  <metadata
     id="metadata5">
    <rdf:RDF>
      <cc:Work
         rdf:about="">
        <dc:format>image/svg+xml</dc:format>
        <dc:type
           rdf:resource="http://purl.org/dc/dcmitype/StillImage" />
        <dc:title></dc:title>
      </cc:Work>
    </rdf:RDF>
  </metadata>
  <g
     inkscape:label="Calque 1"
     inkscape:groupmode="layer"
     id="layer1"
     transform="translate(0,-41)">
    <rect
       style="opacity:1;fill:#ffffff;fill-opacity:1;fill-rule:nonzero;stroke:none;stroke-width:1.47387493;stroke-linecap:round;stroke-linejoin:round;stroke-miterlimit:4;stroke-dasharray:none;stroke-dashoffset:0;stroke-opacity:1"
       id="rect856"
       width="256"
       height="256"
       x="0"
       y="40.999973" />
    <path
       style="opacity:1;fill:#000000;fill-opacity:1;fill-rule:nonzero;stroke:none;stroke-width:1.6981802;stroke-linecap:round;stroke-linejoin:round;stroke-miterlimit:4;stroke-dasharray:none;stroke-dashoffset:0;stroke-opacity:1"
       d="m 129.14107,93.156276 a 75.851852,75.851852 0 0 0 -36.50024,8.736194 75.851852,75.851852 0 0 0 -32.05376,101.87681 75.851852,75.851852 0 0 0 101.59265,32.94554 75.851852,75.851852 0 0 0 33.82993,-101.30115 l -1.21757,-2.35918 A 75.851852,75.851852 0 0 0 129.14107,93.156276 Z m -0.14222,9.480914 a 66.37037,66.37037 0 0 1 57.44403,34.91029 l 1.06567,2.06526 a 66.37037,66.37037 0 0 1 -29.60152,88.63786 66.37037,66.37037 0 0 1 -88.895095,-28.82735 66.37037,66.37037 0 0 1 28.048308,-89.14252 66.37037,66.37037 0 0 1 31.938607,-7.64354 z"
       id="path864-5"
       inkscape:connector-curvature="0" />
    <path
       id="path915-5"
       style="fill:none;fill-rule:evenodd;stroke:#000000;stroke-width:3.79253769;stroke-linecap:butt;stroke-linejoin:miter;stroke-miterlimit:4;stroke-dasharray:none;stroke-opacity:1"
       d="m 146.04143,168.99886 z m 0,0 c -7.73946,5.37356 -14.71229,6.10347 -17.21507,7.19253 5.6787,24.3855 39.43518,29.70838 39.43518,29.70838 -5.4895,-20.91334 -14.25253,-31.36897 -22.22011,-36.90091 z m -17.21507,7.19253 h 5e-5 z m -0.82645,-7.1922 c 0,-30.57312 40.26149,-36.90059 40.26149,-36.90059 -12.17409,46.37918 -40.45577,41.41217 -40.42946,45.07585 0.0142,4.22098 0.16783,-8.17526 0.16783,-8.17526 z"
       inkscape:connector-curvature="0" />
    <path
       inkscape:connector-curvature="0"
       id="path915-5-4"
       style="fill:none;fill-rule:evenodd;stroke:#000000;stroke-width:3.79253769;stroke-linecap:butt;stroke-linejoin:miter;stroke-miterlimit:4;stroke-dasharray:none;stroke-opacity:1"
       d="m 109.9581,168.99886 z m 0,0 c 7.73946,5.37356 14.71229,6.10347 17.21507,7.19253 -5.6787,24.3855 -39.435176,29.70838 -39.435176,29.70838 5.489499,-20.91334 14.252526,-31.36897 22.220106,-36.90091 z m 17.21507,7.19253 h -5e-5 z m 0.82645,-7.1922 c 0,-30.57312 -40.261483,-36.90059 -40.261483,-36.90059 12.17409,46.37918 40.455763,41.41217 40.429453,45.07585 -0.0142,4.22098 -0.16782,-8.17526 -0.16782,-8.17526 z" />
    <rect
       style="opacity:1;fill:none;fill-opacity:1;fill-rule:nonzero;stroke:#000000;stroke-width:3.79253769;stroke-linecap:butt;stroke-linejoin:round;stroke-miterlimit:11.19999981;stroke-dasharray:none;stroke-dashoffset:0;stroke-opacity:1;paint-order:normal"
       id="rect911"
       width="0.89975083"
       height="64.897812"
       x="127.53763"
       y="138.03459" />
  </g>
</svg>
